<?xml version="1.0" encoding="UTF-8" standalone="no"?>
<!-- Generator: Adobe Illustrator 16.0.0, SVG Export Plug-In . SVG Version: 6.00 Build 0)  -->

<svg
   version="1.1"
   id="Capa_1"
   x="0px"
   y="0px"
   width="16.014769"
   height="20"
   viewBox="0 0 16.014768 20"
   enable-background="new 0 0 26.458 33.042"
   xml:space="preserve"
   sodipodi:docname="centro_cientifico.svg"
   inkscape:version="1.2.1 (9c6d41e410, 2022-07-14)"
   xmlns:inkscape="http://www.inkscape.org/namespaces/inkscape"
   xmlns:sodipodi="http://sodipodi.sourceforge.net/DTD/sodipodi-0.dtd"
   xmlns="http://www.w3.org/2000/svg"
   xmlns:svg="http://www.w3.org/2000/svg"><defs
   id="defs36" /><sodipodi:namedview
   id="namedview34"
   pagecolor="#505050"
   bordercolor="#eeeeee"
   borderopacity="1"
   inkscape:showpageshadow="0"
   inkscape:pageopacity="0"
   inkscape:pagecheckerboard="0"
   inkscape:deskcolor="#505050"
   showgrid="false"
   inkscape:zoom="17.419797"
   inkscape:cx="3.8461987"
   inkscape:cy="18.341201"
   inkscape:window-width="1920"
   inkscape:window-height="1001"
   inkscape:window-x="-9"
   inkscape:window-y="-9"
   inkscape:window-maximized="1"
   inkscape:current-layer="Capa_1" />
<g
   id="g24"
   style="image-rendering:auto"
   transform="matrix(0.57867605,0,0,0.60093611,0.28060175,0.03751201)">
	<path
   fill="#a1696b"
   d="m 13.322,0.094 c -6.889,0 -12.656,5.858 -12.656,12.855 0,4.229 2.243,6.998 5.128,10.255 2.563,2.927 5.288,4.787 7.528,9.832 2.406,-5.045 5.131,-6.905 7.693,-9.832 2.726,-3.258 5.13,-6.025 5.13,-10.255 0,-6.998 -5.767,-12.855 -12.819,-12.855 z"
   id="path20" />
	<path
   fill="#ffffff"
   d="m 13.332,1.604 c -6.106,0 -11.219,5.128 -11.219,11.25 0,3.704 1.989,6.127 4.545,8.977 2.272,2.56 4.686,4.188 6.673,8.604 2.132,-4.416 4.55,-6.045 6.821,-8.604 2.415,-2.852 4.545,-5.273 4.545,-8.977 0,-6.124 -5.11,-11.25 -11.363,-11.25 z"
   id="path22" />
</g>
<g
   id="Capa_3"
   transform="matrix(0.57867605,0,0,0.60093611,0.28060175,0.03751201)">
	<g
   id="g30">
		<path
   fill="#660000"
   stroke="#ffffff"
   stroke-width="0.01"
   stroke-miterlimit="10"
   d="m 5.809,19.385 c 0,0.387 0.319,0.707 0.709,0.707 v 0 h 13.418 c 0.394,0 0.716,-0.32 0.716,-0.714 0,-0.396 -0.322,-0.719 -0.716,-0.719 H 13.28 c -2.879,0 -5.799,-1.684 -5.799,-4.933 0.028,-2.996 2.423,-5.434 5.417,-5.514 v 1.826 h -0.344 c -0.389,0 -0.709,0.318 -0.709,0.708 v 0 2.968 c 0,0.392 0.32,0.711 0.709,0.711 v 0 H 18.1 c 0.391,0 0.71,-0.32 0.71,-0.711 v 0 -2.968 c 0,-0.39 -0.319,-0.708 -0.71,-0.708 v 0 H 17.753 V 3.61 C 17.753,3.218 17.44,2.9 17.044,2.9 h -3.421 c -0.396,0 -0.711,0.318 -0.711,0.71 V 6.78 C 9.123,6.863 6.092,9.941 6.064,13.727 6.057,15.688 7,17.532 8.598,18.66 H 6.531 c -0.393,-0.002 -0.718,0.306 -0.725,0.696 0.003,0.011 0.003,0.018 0.003,0.029 z M 14.333,4.332 h 1.987 v 5.72 h -1.987 z m -1.053,7.151 h 4.11 v 1.536 h -4.11 z"
   id="path26" />
		<path
   fill="#660000"
   d="m 14.374,16.385 c -0.229,0 -0.418,0.187 -0.418,0.417 0,0.232 0.188,0.419 0.418,0.419 v 0 h 2.001 c 0.232,0 0.417,-0.187 0.417,-0.419 0,-0.23 -0.185,-0.417 -0.417,-0.417 z"
   id="path28" />
	</g>
</g>
</svg>
